<svg width="1920" height="1062" viewBox="0 0 1920 1062" fill="none" xmlns="http://www.w3.org/2000/svg">
<rect x="-2" width="1920" height="1062" fill="#F6F9FB"/>
<mask id="mask0" style="mask-type:alpha" maskUnits="userSpaceOnUse" x="0" y="0" width="1920" height="1062">
<rect width="1920" height="1062" fill="#F6F9FB"/>
</mask>
<g mask="url(#mask0)">
<path opacity="0.55" d="M965.249 909.92C938.417 861.685 882.737 833.923 827.833 816.397C758.039 794.063 684.833 783.516 613.954 764.284C543.23 745.207 472.661 716.049 423.34 664.867C363.162 602.363 341.604 515.043 287.63 447.731C204.653 344.281 70.0288 316.364 -48 349.865V846.33C-40.5553 840.902 -32.4903 836.249 -24.2702 832.217C63.5147 790.03 181.233 798.405 259.402 852.379C295.85 877.505 325.474 912.092 369.831 925.43C400.385 934.581 433.886 932.254 466.302 931.944C521.826 931.324 581.073 937.838 623.88 967.926C662.344 994.913 682.352 1040.98 668.548 1081.77C668.238 1082.7 667.928 1083.63 667.463 1084.56H939.658C949.894 1071.84 958.735 1058.04 965.869 1042.53C985.877 1000.96 987.738 950.556 965.249 909.92Z" fill="#1B8FFF" fill-opacity="0.25"/>
<path opacity="0.15" d="M287.631 447.887C341.605 515.044 363.163 602.519 423.341 665.023C472.661 716.36 543.076 745.363 613.955 764.44C684.679 783.517 758.04 794.219 827.834 816.553C882.738 834.079 938.418 861.841 965.25 910.076C987.894 950.711 985.878 1000.96 966.335 1042.99C959.201 1058.35 950.36 1072.31 940.124 1085.03H1694.67C1687.54 1077.58 1681.02 1069.67 1675.13 1061.45C1589.83 940.94 1640.08 773.591 1577.42 641.448C1532.44 546.839 1430.85 481.078 1322.13 462.776C1213.4 444.475 1099.25 469.911 1003.09 520.938C942.605 553.043 883.824 596.315 814.34 598.176C718.8 600.813 642.027 524.04 597.049 444.94C552.071 365.841 523.223 276.195 456.066 212.295C361.612 122.338 213.96 104.967 79.4906 110.396C37.6144 112.102 -6.74329 114.894 -47.844 109V350.021C70.1848 316.52 204.654 344.592 287.631 447.887Z" fill="#1B8FFF" fill-opacity="0.45"/>
<path opacity="0.1" fill-rule="evenodd" clip-rule="evenodd" d="M1876 -15.1759L1833.18 -58L1600.47 174.702L1600.69 174.922L1600 175.615L1832.7 408.318L1875.53 365.493L1685.43 175.395L1876 -15.1759Z" fill="#4073BA"/>
<path opacity="0.2" fill-rule="evenodd" clip-rule="evenodd" d="M383 712.824L340.176 670L107.473 902.702L107.693 902.922L107 903.615L339.702 1136.32L382.527 1093.49L192.429 903.395L383 712.824Z" fill="#4073BA" fill-opacity="0.25"/>
</g>
</svg>
